<?xml version="1.0" standalone="no"?>
<!DOCTYPE svg PUBLIC "-//W3C//DTD SVG 20010904//EN"
 "http://www.w3.org/TR/2001/REC-SVG-20010904/DTD/svg10.dtd">
<svg version="1.0" xmlns="http://www.w3.org/2000/svg"
 width="516.000000pt" height="657.000000pt" viewBox="0 0 516.000000 657.000000"
 preserveAspectRatio="xMidYMid meet">

<g transform="translate(0.000000,657.000000) scale(0.100000,-0.100000)"
fill="#b9251c" stroke="none">
<path d="M2064 6494 c22 -167 -108 -320 -334 -392 -150 -48 -256 -53 -467 -20
l-142 21 -83 -20 c-184 -46 -328 -177 -424 -387 -14 -32 -23 -60 -20 -63 3 -3
31 -1 62 6 32 6 80 11 108 10 43 0 48 -2 32 -12 -71 -45 -192 -136 -250 -187
-97 -87 -160 -163 -205 -250 -40 -77 -96 -240 -89 -260 2 -6 34 27 72 74 90
114 159 174 351 306 88 61 196 137 240 169 105 77 238 202 227 213 -4 4 -45
11 -90 15 -45 3 -82 9 -82 14 0 17 124 118 177 144 83 41 155 43 289 12 222
-53 343 -57 499 -17 159 41 278 129 340 252 22 44 35 85 35 109 0 21 4 40 9
44 26 16 191 -130 251 -223 l15 -24 39 56 c59 85 180 186 224 186 5 0 12 -20
14 -44 14 -117 114 -243 248 -307 175 -85 350 -96 594 -39 214 50 291 34 436
-91 l75 -64 -89 -7 c-49 -3 -94 -12 -100 -18 -22 -24 169 -180 478 -390 177
-120 291 -223 363 -327 21 -30 39 -49 41 -43 7 20 -29 140 -64 218 -67 147
-154 245 -350 391 -56 42 -110 81 -120 88 -16 10 -11 12 31 12 28 0 78 -5 113
-13 73 -15 73 -17 17 94 -98 196 -258 329 -433 360 -62 11 -83 10 -198 -10
-221 -39 -400 -18 -566 66 -86 43 -171 122 -205 188 -21 41 -24 59 -21 127 l3
79 -36 0 c-56 0 -206 -47 -279 -87 -68 -37 -200 -139 -200 -154 0 -18 -18 -8
-66 37 -119 110 -272 185 -408 199 l-69 8 7 -49z"/>
<path d="M1880 5544 c-14 -2 -65 -9 -115 -15 -140 -16 -137 -13 -69 -76 33
-30 50 -51 39 -48 -126 43 -358 58 -452 30 -108 -32 -201 -127 -219 -223 -6
-30 -2 -38 35 -76 l42 -43 -37 -58 c-57 -89 -77 -156 -82 -270 -6 -143 -1
-165 22 -90 39 130 120 262 239 388 35 37 61 70 58 72 -4 2 -23 6 -44 10 -20
4 -39 11 -42 15 -9 14 77 81 145 114 63 30 69 31 195 30 105 0 152 -5 245 -27
63 -15 128 -31 144 -34 l29 -6 -28 51 c-15 28 -49 75 -76 105 -39 44 -45 56
-33 61 25 10 70 7 152 -9 220 -44 371 -195 431 -430 20 -80 56 -369 49 -400
-2 -13 -12 -10 -53 19 -27 20 -53 36 -58 36 -9 0 42 -103 98 -195 23 -38 52
-92 65 -120 l22 -50 20 45 c11 25 44 83 73 130 57 93 108 190 103 195 -2 2
-29 -14 -61 -36 -33 -23 -60 -39 -62 -37 -9 9 47 383 68 455 71 244 264 393
510 393 l79 0 -50 -56 c-50 -56 -110 -154 -95 -154 5 0 70 14 144 32 113 26
155 31 264 32 l131 1 74 -37 c41 -20 90 -52 108 -71 l34 -35 -39 -12 c-21 -6
-44 -13 -51 -16 -9 -2 15 -34 63 -87 121 -129 197 -252 226 -368 21 -82 32
-57 27 64 -6 124 -31 209 -88 291 -16 25 -30 48 -30 52 0 5 18 27 41 50 41 42
41 42 29 81 -37 114 -104 182 -213 215 -60 18 -85 20 -186 15 -65 -3 -153 -15
-200 -26 -46 -12 -85 -20 -87 -18 -2 1 24 25 57 51 43 35 57 51 47 57 -45 24
-387 46 -473 30 -84 -15 -177 -64 -220 -114 -98 -113 -188 -393 -229 -712
l-12 -100 -8 75 c-16 166 -69 408 -118 533 -76 198 -161 283 -316 316 -49 10
-204 13 -262 5z"/>
<path d="M673 5181 c-88 -64 -136 -158 -137 -271 -1 -91 19 -155 81 -262 58
-101 62 -131 29 -204 -24 -52 -52 -89 -184 -247 -156 -187 -210 -318 -219
-532 -6 -129 10 -324 28 -355 7 -12 8 -11 9 5 0 45 73 273 126 398 64 151 167
354 250 489 89 148 153 222 272 315 l24 18 -79 80 c-131 134 -191 277 -179
430 4 44 11 97 17 119 6 21 8 40 6 42 -2 2 -22 -9 -44 -25z"/>
<path d="M4446 5188 c18 -57 24 -99 24 -178 -1 -149 -60 -278 -187 -406 l-72
-72 40 -28 c56 -38 150 -141 208 -227 160 -238 340 -619 396 -840 32 -124 36
-139 40 -135 2 2 12 62 21 133 26 209 6 386 -61 532 -43 93 -71 132 -199 283
-59 69 -119 150 -134 180 -40 82 -37 118 25 225 93 160 106 283 45 408 -31 63
-72 106 -130 136 -22 12 -23 11 -16 -11z"/>
<path d="M3074 4801 c-96 -63 -185 -166 -253 -292 -36 -69 -76 -177 -67 -186
2 -2 19 18 39 44 64 88 206 213 241 213 3 0 -10 -24 -28 -53 -36 -55 -58 -104
-69 -148 l-6 -25 65 33 c43 21 81 33 107 33 l41 0 -26 -27 c-71 -77 -118 -190
-118 -284 l0 -59 46 35 c70 54 100 66 163 67 68 1 126 -22 218 -88 l65 -46
-36 -37 c-66 -68 -97 -173 -76 -260 16 -69 55 -119 136 -174 43 -29 82 -67
104 -98 34 -50 35 -55 38 -158 2 -98 0 -113 -32 -206 -19 -55 -33 -101 -31
-103 6 -7 121 158 151 218 44 89 58 149 51 216 -9 88 -32 122 -128 186 -151
102 -192 168 -151 246 16 31 31 42 96 69 43 17 92 43 111 57 126 97 105 301
-37 344 -18 6 -82 13 -143 16 -128 6 -194 23 -261 69 -107 72 -137 152 -90
239 l25 47 -55 12 c-30 7 -54 18 -54 24 0 7 7 34 15 60 8 27 13 50 11 52 -1 2
-29 -14 -62 -36z"/>
<path d="M2035 4813 c4 -10 9 -35 12 -55 5 -33 2 -39 -18 -47 -13 -5 -36 -14
-51 -20 l-27 -10 20 -47 c36 -81 24 -137 -43 -201 -65 -63 -199 -103 -346
-103 -63 0 -92 -5 -122 -20 -56 -28 -92 -80 -98 -140 -7 -77 5 -117 51 -167
45 -49 76 -68 148 -89 56 -17 99 -62 99 -104 0 -69 -42 -123 -156 -201 -116
-78 -140 -122 -132 -246 4 -64 12 -88 52 -166 25 -51 70 -120 99 -154 28 -34
52 -61 53 -60 1 1 -14 49 -34 107 -29 88 -35 120 -36 195 0 79 3 96 26 140 30
57 50 78 130 130 147 96 174 251 71 402 -24 36 -41 69 -36 72 51 38 155 100
182 109 87 30 181 6 254 -64 l37 -36 0 65 c0 96 -48 214 -117 288 l-24 27 33
5 c30 5 73 -11 170 -61 11 -5 -39 115 -68 165 -14 24 -24 46 -22 49 2 2 26
-12 54 -30 48 -33 113 -97 186 -186 l37 -45 -15 55 c-49 170 -201 377 -322
439 -50 26 -56 26 -47 4z"/>
<path d="M1005 4306 c-59 -18 -83 -33 -138 -85 -117 -109 -147 -246 -146 -661
l1 -255 28 80 c58 166 125 303 184 379 15 18 17 18 53 -14 47 -42 133 -81 191
-88 l45 -5 -47 57 c-56 69 -111 175 -131 253 -23 90 -19 238 11 336 6 20 3 20
-51 3z"/>
<path d="M4110 4318 c0 -2 7 -35 15 -73 18 -84 19 -185 4 -257 -20 -94 -88
-225 -158 -302 l-26 -29 45 7 c59 9 137 45 182 85 20 17 40 31 45 31 27 0 127
-193 195 -375 16 -44 32 -82 35 -85 11 -10 -7 546 -21 632 -25 157 -103 282
-210 332 -46 22 -106 41 -106 34z"/>
<path d="M2130 3625 c-7 -16 -13 -55 -14 -85 -2 -99 55 -166 189 -225 69 -31
171 -104 234 -169 l44 -45 84 79 c66 61 110 92 202 140 99 51 124 68 152 108
30 42 34 54 34 112 0 36 -7 76 -14 89 l-14 25 -18 -36 c-22 -43 -37 -50 -82
-36 -80 25 -143 -13 -207 -122 -40 -69 -83 -113 -120 -125 -35 -11 -82 27
-142 115 -31 47 -70 96 -87 109 -35 27 -108 39 -139 22 -29 -15 -50 -4 -72 38
l-18 36 -12 -30z"/>
<path d="M2555 2892 c-107 -160 -455 -320 -597 -273 -41 14 -82 54 -95 95 l-9
29 -19 -29 c-20 -31 -31 -108 -21 -148 3 -14 20 -41 37 -60 l30 -35 -29 -43
c-63 -91 -80 -165 -58 -242 16 -56 54 -110 62 -90 3 6 11 19 18 29 12 17 17
17 46 5 55 -23 88 -58 110 -118 77 -208 199 -267 374 -181 33 16 69 29 81 29
12 0 40 -16 62 -35 26 -22 44 -31 48 -25 4 6 25 24 46 40 l40 28 77 -36 c62
-29 89 -36 142 -36 115 -1 166 43 230 202 33 82 38 89 85 114 62 34 73 34 87
3 9 -21 14 -23 26 -12 26 21 52 90 52 139 0 56 -28 135 -64 183 -31 41 -32 47
-5 71 56 50 67 134 29 203 -27 46 -40 52 -40 17 0 -35 -45 -84 -88 -96 -54
-15 -94 -12 -184 11 -169 43 -343 155 -420 270 l-24 36 -29 -45z m270 -244
c98 -29 202 -86 260 -141 59 -57 75 -127 50 -212 -26 -89 -63 -137 -138 -174
-45 -22 -73 -44 -94 -75 -42 -60 -73 -64 -204 -30 -113 29 -144 28 -260 -7
-94 -28 -127 -21 -175 36 -20 25 -62 59 -93 75 -67 36 -106 82 -132 155 -23
65 -23 86 -4 151 16 55 51 92 130 142 143 89 240 113 440 108 112 -3 156 -8
220 -28z"/>
<path d="M461 2904 c-180 -48 -350 -216 -430 -424 -17 -44 -31 -82 -31 -85 0
-4 40 33 89 82 165 165 311 211 387 120 25 -30 26 -35 21 -112 -3 -44 -17
-118 -31 -165 -66 -218 -58 -358 34 -644 94 -291 115 -391 128 -611 l7 -110
47 120 c55 143 81 232 109 379 33 177 73 254 154 301 50 30 55 30 48 6 -8 -33
16 -192 52 -338 59 -242 66 -376 29 -573 -8 -41 -14 -81 -14 -87 0 -24 105 52
189 136 l84 85 34 -40 c95 -109 197 -260 278 -411 15 -29 31 -50 35 -48 24 15
77 295 63 332 -3 7 0 13 6 13 6 0 11 -5 11 -10 0 -28 75 -163 115 -208 60 -66
93 -86 190 -112 44 -12 98 -29 120 -39 65 -29 152 -118 227 -231 75 -112 158
-220 170 -220 13 0 118 133 165 210 59 95 96 138 160 190 58 46 103 67 186 86
151 36 216 101 308 309 12 29 13 26 21 -59 10 -116 55 -285 71 -266 2 3 27 48
56 100 68 120 176 279 239 349 l49 55 69 -73 c59 -64 192 -167 201 -157 2 1
-5 41 -14 87 -12 58 -17 133 -17 244 -1 148 2 170 32 290 43 168 62 276 62
348 0 31 3 57 7 57 23 0 96 -57 121 -96 41 -60 57 -111 86 -274 25 -136 88
-336 129 -414 l22 -41 6 145 c8 178 32 294 109 534 84 263 94 315 87 455 -4
87 -13 143 -37 226 -56 195 -42 294 45 323 83 27 189 -23 328 -156 103 -99
107 -93 38 53 -91 194 -267 346 -432 375 -120 21 -186 -28 -231 -173 -36 -115
-30 -231 22 -437 63 -251 62 -365 -6 -542 -14 -38 -29 -68 -32 -68 -4 0 -18
19 -31 43 -40 70 -120 163 -179 207 -52 39 -131 80 -153 80 -5 0 -9 -28 -9
-62 -1 -91 -27 -143 -84 -169 -37 -16 -149 -37 -204 -39 -6 0 22 -32 64 -72
89 -85 115 -130 122 -215 7 -94 -26 -154 -131 -239 -114 -92 -191 -188 -276
-344 l-38 -70 -12 152 c-10 138 -32 260 -51 281 -4 4 -15 -12 -25 -35 -76
-175 -194 -314 -329 -388 -99 -54 -172 -126 -268 -265 -50 -74 -103 -135 -159
-186 l-84 -76 -50 41 c-81 67 -129 121 -204 230 -89 128 -173 209 -274 265
-129 70 -241 204 -307 367 -12 30 -26 54 -30 54 -17 0 -53 -191 -59 -315 -5
-89 -10 -124 -16 -110 -26 58 -111 193 -160 255 -30 38 -86 94 -123 124 -124
100 -155 148 -155 246 0 95 61 194 163 265 22 15 39 29 37 31 -1 1 -40 7 -85
13 -46 6 -103 19 -127 30 -62 27 -79 59 -85 158 l-5 82 -73 -35 c-91 -44 -181
-127 -247 -228 -44 -67 -51 -75 -62 -60 -25 34 -65 177 -72 258 -10 103 -2
165 45 348 45 176 53 286 30 389 -23 103 -66 175 -119 200 -50 22 -74 23 -146
3z"/>
</g>
</svg>
