<svg version="1.0" xmlns="http://www.w3.org/2000/svg"
 width="1254.000000pt" height="1254.000000pt" viewBox="0 0 1254.000000 1254.000000"
 preserveAspectRatio="xMidYMid meet">

<g transform="translate(0.000000,1254.000000) scale(0.100000,-0.100000)"
fill="#000000" stroke="none">
<path d="M5723 10684 c21 -163 -99 -311 -312 -386 -134 -46 -283 -60 -416 -38
-162 27 -219 30 -288 15 -172 -36 -321 -164 -419 -360 -14 -27 -29 -61 -33
-74 -7 -23 -6 -24 31 -17 58 10 184 19 184 13 0 -3 -17 -15 -37 -27 -163 -96
-366 -293 -431 -418 -40 -77 -97 -243 -90 -263 2 -6 26 18 53 53 113 145 176
199 427 367 155 104 267 190 362 278 75 71 75 71 -53 80 l-85 6 62 59 c132
123 239 150 417 104 132 -33 274 -50 359 -41 233 23 402 120 481 278 21 42 35
84 35 107 0 20 3 39 6 43 3 3 22 -4 42 -16 65 -37 132 -98 178 -163 25 -35 47
-64 49 -64 1 0 14 18 29 40 15 23 44 60 64 82 38 42 145 118 167 118 7 0 15
-19 18 -45 7 -71 60 -166 121 -222 166 -152 418 -195 721 -124 214 50 285 35
435 -91 l75 -63 -87 -7 c-135 -10 -135 -11 -26 -109 94 -85 187 -155 418 -310
136 -91 272 -215 341 -310 54 -74 61 -59 24 59 -68 216 -178 352 -434 533
l-92 64 38 3 c21 1 71 -4 111 -11 72 -14 72 -14 66 7 -12 41 -85 168 -129 226
-89 116 -204 191 -331 217 -75 15 -84 15 -211 -7 -151 -26 -300 -24 -408 4
-97 26 -235 99 -292 155 -75 74 -95 122 -91 221 l3 80 -31 0 c-47 0 -182 -37
-249 -69 -64 -30 -223 -145 -232 -167 -9 -23 -26 -15 -73 32 -104 104 -267
184 -409 200 l-64 7 6 -49z"/>
<path d="M5455 9724 c-176 -22 -169 -16 -99 -80 32 -31 50 -53 39 -49 -90 29
-228 47 -331 43 -101 -4 -118 -7 -177 -36 -71 -35 -113 -80 -147 -153 -28 -62
-25 -78 20 -124 l41 -42 -40 -64 c-57 -95 -74 -150 -79 -264 -6 -142 -1 -165
22 -91 22 73 82 194 129 259 18 26 66 81 106 121 39 41 68 77 64 79 -5 3 -25
8 -46 12 -20 4 -39 11 -42 15 -9 14 77 81 145 114 63 30 69 31 195 30 109 -1
152 -6 264 -32 74 -18 139 -32 144 -32 14 0 -42 90 -94 152 l-49 56 30 7 c60
13 216 -21 303 -67 71 -38 172 -144 210 -220 44 -88 75 -215 93 -394 10 -90
15 -167 12 -170 -3 -3 -28 11 -56 30 -27 20 -53 36 -56 36 -4 0 16 -44 45 -97
29 -54 72 -136 97 -182 l45 -84 31 64 c18 35 51 94 74 131 41 67 92 162 92
173 0 3 -27 -13 -61 -36 -33 -22 -62 -39 -64 -37 -9 8 47 384 68 456 71 243
265 391 515 392 l74 0 -50 -56 c-52 -58 -110 -154 -94 -154 6 0 57 11 114 24
310 73 466 57 598 -61 l44 -40 -52 -17 -53 -18 66 -70 c125 -132 206 -263 236
-379 21 -81 32 -57 27 59 -5 123 -29 206 -84 289 -19 29 -34 56 -34 61 0 4 18
25 40 47 32 31 38 43 33 64 -26 115 -100 195 -213 231 -63 20 -84 22 -188 17
-66 -3 -153 -15 -201 -26 -46 -12 -85 -20 -87 -18 -2 1 24 24 57 51 33 27 57
51 54 54 -9 10 -177 31 -295 37 -140 8 -224 -4 -307 -45 -73 -36 -121 -88
-168 -180 -63 -126 -129 -377 -159 -605 l-12 -100 -8 75 c-14 150 -69 404
-110 512 -13 35 -38 91 -55 126 -99 196 -260 250 -616 206z"/>
<path d="M4333 9371 c-91 -66 -137 -159 -137 -276 0 -94 22 -163 84 -265 23
-37 43 -84 47 -103 8 -55 -39 -146 -137 -260 -225 -262 -277 -375 -287 -612
-5 -121 8 -309 24 -351 4 -12 18 25 39 109 39 149 128 369 223 552 145 277
250 425 362 512 32 25 59 47 59 48 0 1 -35 38 -78 81 -130 133 -190 277 -178
429 4 44 11 97 17 119 6 21 8 40 6 42 -2 2 -22 -9 -44 -25z"/>
<path d="M8105 9380 c19 -58 25 -100 25 -177 0 -148 -61 -284 -185 -408 l-74
-73 40 -28 c124 -85 275 -306 433 -629 99 -203 133 -296 197 -535 l12 -45 8
35 c22 99 31 277 20 377 -22 201 -76 317 -234 505 -130 153 -163 201 -183 261
-20 60 -15 80 46 187 91 160 104 277 42 403 -31 63 -54 87 -126 133 l-29 18 8
-24z"/>
<path d="M6745 8998 c-127 -75 -272 -269 -319 -427 -9 -30 -14 -56 -12 -58 2
-2 16 13 32 34 72 97 212 223 246 223 4 0 -8 -24 -26 -53 -36 -55 -58 -104
-69 -148 l-6 -25 65 33 c43 21 81 33 107 33 l41 0 -26 -27 c-69 -75 -118 -192
-118 -284 l0 -59 48 37 c64 49 101 63 166 63 67 0 136 -29 219 -91 l57 -43
-34 -35 c-66 -68 -97 -173 -76 -260 16 -67 57 -121 128 -170 67 -45 118 -100
138 -147 9 -20 14 -70 14 -126 0 -79 -5 -108 -34 -193 -19 -55 -33 -101 -31
-103 8 -9 136 181 165 245 30 67 34 89 35 158 0 109 -18 143 -108 203 -182
123 -225 203 -149 284 14 15 46 34 72 43 69 23 135 68 165 113 31 47 42 125
26 175 -30 90 -93 126 -221 127 -103 0 -201 20 -267 53 -64 33 -130 105 -139
152 -7 42 8 106 31 125 25 21 18 28 -40 41 -30 7 -55 18 -55 24 0 7 7 34 15
60 8 27 13 50 12 51 -1 0 -24 -12 -52 -28z"/>
<path d="M5695 9003 c4 -10 9 -35 12 -55 6 -40 4 -42 -80 -71 -16 -6 -16 -9
-3 -34 43 -84 35 -147 -26 -210 -67 -70 -201 -113 -350 -113 -121 0 -170 -25
-212 -107 -18 -36 -21 -118 -5 -160 23 -63 108 -129 196 -152 50 -14 93 -60
93 -101 0 -69 -42 -123 -156 -201 -115 -77 -139 -121 -132 -244 3 -62 10 -86
50 -166 26 -52 71 -122 100 -156 29 -34 54 -60 55 -59 1 1 -11 37 -27 81 -85
228 -57 370 93 475 86 60 122 106 143 179 13 44 14 64 5 109 -12 59 -46 125
-80 156 -12 11 -21 24 -21 30 0 14 110 89 170 115 53 24 136 27 185 7 18 -8
55 -34 81 -58 l46 -43 -3 80 c-5 91 -43 186 -105 262 l-35 43 48 0 c34 0 63
-9 102 -30 30 -17 55 -30 57 -30 6 0 -48 126 -72 167 -14 24 -24 46 -22 49 2
2 26 -12 54 -30 48 -33 113 -97 186 -186 l37 -45 -15 55 c-49 168 -202 378
-322 439 -50 26 -56 26 -47 4z"/>
<path d="M4665 8496 c-59 -18 -83 -33 -138 -85 -117 -109 -147 -246 -146 -661
l1 -255 28 80 c58 166 125 303 184 379 15 18 17 18 53 -14 47 -42 133 -81 191
-88 l45 -5 -47 57 c-53 65 -106 166 -130 245 -25 85 -20 243 10 344 6 20 3 20
-51 3z"/>
<path d="M7770 8506 c0 0 7 -33 15 -71 29 -138 17 -258 -40 -381 -30 -67 -102
-175 -125 -189 -5 -3 -10 -10 -10 -15 0 -14 137 28 178 54 20 13 46 33 56 45
11 11 24 21 30 21 28 0 138 -210 202 -385 l29 -80 3 155 c4 182 -13 449 -33
538 -37 159 -139 272 -271 302 -19 4 -34 7 -34 6z"/>
<path d="M5790 7815 c-21 -50 -17 -135 8 -182 27 -52 67 -83 164 -128 81 -37
152 -88 233 -166 l51 -49 44 46 c71 72 147 127 258 183 85 44 108 61 135 100
28 40 32 54 32 111 0 36 -7 76 -14 89 l-14 25 -18 -36 c-22 -43 -39 -51 -79
-36 -76 26 -148 -15 -210 -121 -62 -107 -116 -144 -169 -117 -32 17 -53 41
-112 133 -22 35 -54 72 -71 84 -36 26 -106 36 -137 20 -28 -16 -59 1 -76 42
l-13 32 -12 -30z"/>
<path d="M6203 7068 c-96 -128 -322 -248 -493 -264 -91 -9 -149 17 -178 79
l-20 42 -21 -35 c-39 -64 -21 -172 36 -217 13 -10 11 -17 -15 -55 -63 -91 -80
-165 -58 -242 16 -56 54 -110 62 -90 3 6 10 19 17 29 12 16 16 16 52 0 57 -23
82 -51 106 -114 45 -121 105 -191 181 -212 58 -15 118 -5 194 32 73 36 96 34
148 -11 22 -20 37 -27 41 -20 4 6 25 24 46 40 l40 28 77 -36 c178 -84 306 -28
371 160 28 83 35 91 89 121 61 33 69 33 84 2 9 -21 14 -23 26 -12 26 21 52 90
52 139 0 59 -29 139 -69 188 l-30 38 25 23 c14 13 33 37 41 53 29 55 13 149
-31 185 -14 12 -16 10 -16 -14 0 -43 -56 -92 -115 -101 -94 -14 -242 29 -379
110 -69 41 -179 139 -207 185 l-15 23 -41 -54z m277 -228 c127 -36 266 -124
299 -187 31 -63 34 -110 11 -183 -25 -82 -59 -121 -137 -163 -39 -20 -73 -48
-92 -73 -41 -57 -70 -61 -209 -27 l-114 27 -106 -27 c-59 -15 -118 -27 -131
-27 -17 0 -41 18 -75 55 -28 30 -68 61 -88 70 -50 20 -106 78 -131 134 -28 61
-29 152 -2 206 37 74 215 181 350 210 102 21 325 14 425 -15z"/>
<path d="M4121 7094 c-175 -47 -345 -211 -425 -410 -45 -113 -44 -114 46 -24
166 166 311 217 388 135 44 -47 40 -128 -21 -345 -26 -94 -32 -259 -14 -355 8
-38 41 -155 74 -259 85 -264 113 -410 124 -641 l2 -50 47 120 c55 143 81 232
109 379 11 60 28 127 36 150 25 63 74 125 119 152 49 29 54 29 47 5 -8 -33 16
-192 52 -338 59 -242 66 -376 29 -573 -8 -41 -14 -81 -14 -87 0 -24 105 51
187 134 45 46 84 83 86 83 10 0 156 -187 200 -255 24 -38 66 -109 92 -158 26
-48 50 -85 54 -82 25 15 78 294 64 332 -3 7 0 13 6 13 6 0 11 -5 11 -10 0 -28
75 -163 115 -208 61 -68 92 -85 205 -117 145 -40 226 -103 318 -245 30 -47 84
-122 119 -167 l64 -83 53 63 c29 34 82 107 118 162 108 167 183 227 336 270
108 30 154 56 206 117 32 36 80 124 111 203 6 14 11 -8 17 -69 10 -116 55
-285 71 -266 2 3 27 48 56 100 68 120 176 279 239 349 l48 55 74 -77 c61 -65
187 -163 197 -154 1 2 -7 55 -18 118 -29 164 -22 338 21 509 41 164 60 272 60
343 0 31 3 57 6 57 16 0 91 -55 113 -82 39 -48 67 -134 95 -284 27 -151 69
-288 119 -394 l31 -65 7 145 c9 178 33 296 109 534 84 263 94 315 87 455 -4
84 -14 145 -35 221 -52 186 -50 255 6 307 24 22 34 25 93 21 85 -5 149 -42
272 -158 81 -76 89 -82 83 -55 -15 61 -88 196 -146 269 -123 155 -326 253
-440 213 -47 -17 -95 -83 -122 -170 -36 -114 -30 -231 21 -437 64 -253 63
-366 -5 -542 -14 -38 -29 -68 -33 -68 -3 0 -15 17 -26 37 -31 57 -111 154
-163 196 -46 37 -152 97 -172 97 -6 0 -10 -26 -10 -62 -1 -91 -27 -143 -84
-169 -37 -16 -149 -37 -205 -39 -7 0 19 -30 58 -66 94 -87 122 -136 128 -222
4 -59 2 -73 -24 -122 -18 -34 -49 -70 -83 -98 -129 -103 -214 -206 -298 -360
l-39 -72 -11 147 c-11 137 -34 267 -52 286 -4 4 -17 -16 -30 -45 -69 -163
-187 -300 -325 -380 -113 -65 -149 -100 -244 -234 -52 -75 -116 -151 -173
-205 l-91 -87 -73 60 c-69 57 -146 148 -209 248 -52 83 -145 169 -235 218
-139 77 -251 209 -322 379 -12 29 -25 53 -28 53 -17 0 -53 -193 -59 -315 l-6
-130 -29 55 c-80 153 -171 270 -273 350 -91 72 -119 107 -139 177 -13 43 -13
63 -4 107 18 88 54 134 193 247 5 3 -30 11 -78 17 -47 6 -105 20 -129 31 -63
27 -80 59 -86 158 l-5 82 -73 -35 c-91 -44 -181 -127 -247 -228 -27 -42 -52
-76 -56 -76 -13 0 -70 191 -79 266 -11 100 -2 169 47 357 33 125 37 156 37
262 0 99 -3 130 -22 179 -30 82 -60 123 -108 146 -47 23 -70 24 -143 4z"/>
<path d="M1920 3752 l0 -57 50 -18 c27 -10 62 -28 77 -41 l28 -24 0 -506 c0
-573 8 -521 -91 -561 l-59 -24 -3 -60 -3 -61 461 0 460 0 0 59 0 60 -59 17
c-38 10 -70 27 -88 46 l-28 29 -3 600 -3 599 -369 0 -370 0 0 -58z"/>
<path d="M2800 3754 l0 -59 61 -12 c74 -14 125 -51 150 -108 15 -34 19 -69 20
-197 1 -169 -8 -208 -59 -261 -26 -27 -104 -57 -149 -57 -22 0 -23 -4 -23 -61
l0 -61 203 4 c191 4 207 6 286 33 183 62 290 174 321 333 33 166 -66 336 -245
422 -114 54 -201 71 -397 78 l-168 5 0 -59z"/>
<path d="M3870 3752 l0 -58 54 -17 c35 -11 64 -29 80 -48 l26 -31 0 -492 c0
-568 7 -528 -100 -567 l-60 -22 0 -58 0 -59 458 2 457 3 3 57 3 56 -53 16
c-29 8 -64 23 -77 32 -51 36 -51 40 -51 664 l0 580 -370 0 -370 0 0 -58z"/>
<path d="M4750 3751 l0 -59 53 -7 c139 -19 187 -84 187 -252 0 -107 -16 -159
-61 -200 -34 -31 -91 -53 -139 -53 l-40 0 0 -55 c0 -54 1 -55 28 -55 59 0 130
-29 161 -66 41 -51 51 -102 51 -272 0 -176 13 -226 68 -272 68 -56 97 -60 414
-60 l288 0 0 59 0 60 -61 12 c-120 24 -169 87 -169 219 0 93 -12 136 -53 196
-53 77 -146 130 -292 169 -52 14 -51 15 30 34 133 32 255 119 295 213 19 44
22 65 18 135 -4 74 -8 88 -39 133 -19 30 -58 67 -91 90 -107 71 -202 90 -465
90 l-183 0 0 -59z"/>
<path d="M5970 3752 l0 -59 43 -13 c66 -19 95 -38 112 -70 14 -26 15 -94 13
-514 l-3 -484 -24 -26 c-14 -15 -51 -36 -83 -47 l-58 -22 0 -58 0 -59 460 0
460 0 0 59 0 58 -60 22 c-69 25 -97 51 -105 95 -3 17 -5 244 -3 503 3 541 -6
494 103 536 l60 23 3 57 3 57 -461 0 -460 0 0 -58z"/>
<path d="M7100 3752 l0 -57 50 -18 c27 -10 62 -28 77 -41 l28 -24 3 -491 c2
-415 0 -495 -12 -519 -13 -26 -45 -45 -118 -72 -26 -9 -28 -13 -28 -70 l0 -60
370 0 370 0 0 705 0 705 -370 0 -370 0 0 -58z"/>
<path d="M7980 3751 l0 -58 51 -7 c135 -18 204 -101 229 -273 18 -120 8 -609
-13 -682 -36 -123 -103 -184 -215 -198 l-52 -6 0 -63 0 -64 114 0 c209 0 360
41 488 133 179 127 275 307 286 533 8 190 -37 343 -141 479 -137 179 -344 264
-639 265 l-108 0 0 -59z"/>
<path d="M9110 3753 l0 -60 58 -22 c105 -38 97 7 100 -552 2 -411 0 -493 -12
-517 -13 -25 -67 -57 -128 -76 -15 -4 -18 -17 -18 -66 l0 -60 370 0 370 0 0
700 0 700 -203 0 c-112 0 -279 3 -370 7 l-167 6 0 -60z"/>
<path d="M9990 3750 l0 -60 38 0 c67 0 166 -21 224 -47 101 -45 203 -176 232
-296 6 -27 9 -28 59 -25 l52 3 3 243 2 242 -305 0 -305 0 0 -60z"/>
<path d="M10217 3393 c-2 -5 -9 -27 -17 -51 -25 -79 -93 -137 -182 -156 -26
-6 -28 -10 -28 -60 l0 -53 48 -7 c66 -8 115 -45 146 -108 14 -28 26 -60 26
-69 0 -26 16 -31 70 -24 l50 7 0 264 0 264 -54 0 c-30 0 -57 -3 -59 -7z"/>
<path d="M10475 2883 c-40 -137 -122 -246 -224 -297 -65 -33 -152 -56 -213
-56 l-48 0 0 -65 0 -65 305 0 305 0 0 270 0 270 -54 0 -55 0 -16 -57z"/>
</g>
</svg>